<svg xmlns="http://www.w3.org/2000/svg" xmlns:xlink="http://www.w3.org/1999/xlink" width="40" height="40" viewBox="0 0 40 40">
  <defs>
    <linearGradient id="linear-gradient" x1="0.5" x2="0.5" y2="1" gradientUnits="objectBoundingBox">
      <stop offset="0" stop-color="#b65eba"/>
      <stop offset="1" stop-color="#2e8de1"/>
    </linearGradient>
  </defs>
  <path id="analyzing_the_future_of_jobs" data-name="analyzing the future of jobs" d="M-2199-422a3.357,3.357,0,0,1-3.372-3.333v-5.294A12.636,12.636,0,0,1-2210-442.193a12.636,12.636,0,0,1,7.628-11.567v-4.907A3.357,3.357,0,0,1-2199-462h20.232c.014,0,.026.008.038.005a.669.669,0,0,1,.177.035c.021.007.041.013.061.022a.661.661,0,0,1,.2.133l8.093,8a.663.663,0,0,1,.135.2c.009.021.015.041.022.063a.632.632,0,0,1,.035.171c0,.015.009.027.009.042v28a3.357,3.357,0,0,1-3.372,3.333Zm-2.024-3.333a2.012,2.012,0,0,0,2.024,2h25.628a2.012,2.012,0,0,0,2.023-2v-27.334h-6.07a2.011,2.011,0,0,1-2.023-2v-6H-2199a2.012,2.012,0,0,0-2.023,2v4.386c.042-.013.084-.022.126-.035.113-.033.225-.06.337-.09.25-.068.5-.129.754-.182q.191-.039.383-.072.385-.066.774-.109c.116-.013.231-.029.348-.039.374-.031.75-.052,1.129-.052a12.805,12.805,0,0,1,9.063,3.71,12.543,12.543,0,0,1,3.689,7.7q.062.623.062,1.256a12.469,12.469,0,0,1-1.693,6.28l5.961,5.9a3.308,3.308,0,0,1,.993,3.275,3.352,3.352,0,0,1-2.447,2.416,3.4,3.4,0,0,1-3.312-.984l-5.963-5.889a12.841,12.841,0,0,1-6.353,1.673c-.38,0-.756-.02-1.129-.052-.117-.01-.231-.026-.348-.039-.26-.03-.519-.065-.776-.109-.127-.022-.254-.046-.38-.072-.257-.05-.511-.117-.763-.183-.109-.03-.219-.056-.326-.089-.042-.013-.086-.022-.128-.035Zm13.982-9.117c-.072.091-.142.182-.216.271a12.415,12.415,0,0,1-.853.944,12.423,12.423,0,0,1-.956.843c-.09.073-.181.143-.274.213s-.208.167-.316.246l5.757,5.681a2.071,2.071,0,0,0,2.855,0,1.974,1.974,0,0,0,.595-1.41,1.974,1.974,0,0,0-.595-1.41l-5.749-5.69C-2186.87-434.656-2186.959-434.556-2187.041-434.45Zm-18.242-15.761a11.252,11.252,0,0,0-3.354,8.018,11.314,11.314,0,0,0,5.919,9.918,11.577,11.577,0,0,0,11.644-.321,11.346,11.346,0,0,0,3.607-3.565,11.148,11.148,0,0,0,1.76-6.032,11.326,11.326,0,0,0-.141-1.7,11.378,11.378,0,0,0-10.185-9.582q-.563-.054-1.139-.055h-.015A11.518,11.518,0,0,0-2205.283-450.211Zm27.191-4.455a.671.671,0,0,0,.675.667h5.116l-5.791-5.724Zm.675,30a.671.671,0,0,1-.675-.667.671.671,0,0,1,.675-.666h2.7a.671.671,0,0,0,.675-.667v-2.667a.671.671,0,0,1,.675-.667.67.67,0,0,1,.674.667v2.667a2.012,2.012,0,0,1-2.023,2Zm-24.944-8.934a9.966,9.966,0,0,1-4.927-8.595,9.851,9.851,0,0,1,1.187-4.708,10.172,10.172,0,0,1,12.964-4.451,9.963,9.963,0,0,1,5.523,12.419c-.021.057-.047.113-.068.169-.072.2-.141.386-.23.585s-.188.394-.291.589c-.025.048-.045.1-.071.146-.051.093-.108.183-.161.275a9.841,9.841,0,0,1-3.935,3.773v0a10.19,10.19,0,0,1-4.813,1.206A10.189,10.189,0,0,1-2202.362-433.6Zm-.02-15.542a8.608,8.608,0,0,0-2.531,11.027c.135.248.281.49.441.726a8.79,8.79,0,0,0,1.1,1.323,8.7,8.7,0,0,0,2,1.479v0a8.831,8.831,0,0,0,8.37.013,8.569,8.569,0,0,0,3.542-3.5v-.006a8.64,8.64,0,0,0-1.51-10.245,8.812,8.812,0,0,0-6.19-2.524A8.817,8.817,0,0,0-2202.382-449.143Zm21.592,16.476a.671.671,0,0,1-.675-.666.671.671,0,0,1,.675-.667h6.069a.671.671,0,0,1,.675.667.671.671,0,0,1-.675.666Zm-2.7-4a.671.671,0,0,1-.675-.667.671.671,0,0,1,.675-.667h8.767a.671.671,0,0,1,.675.667.671.671,0,0,1-.675.667Zm-16.186-.667a.67.67,0,0,1-.674-.667.67.67,0,0,1,.674-.666h4.721a.671.671,0,0,1,.675.666.671.671,0,0,1-.675.667Zm16.861-3.333a.67.67,0,0,1-.675-.666.671.671,0,0,1,.675-.667h8.093a.671.671,0,0,1,.675.667.67.67,0,0,1-.675.666Zm-19.558-.666a.671.671,0,0,1-.674-.667.67.67,0,0,1,.674-.667h10.116a.671.671,0,0,1,.675.667.671.671,0,0,1-.675.667Zm19.558-3.333a.671.671,0,0,1-.675-.667.671.671,0,0,1,.675-.667h8.093a.671.671,0,0,1,.675.667.671.671,0,0,1-.675.667Zm-16.861-.667a.67.67,0,0,1-.674-.667.67.67,0,0,1,.674-.666h4.721a.671.671,0,0,1,.675.666.671.671,0,0,1-.675.667Zm14.837-3.333a.67.67,0,0,1-.674-.666.67.67,0,0,1,.674-.667h10.117a.671.671,0,0,1,.674.667.67.67,0,0,1-.674.666Zm-3.372-4a.671.671,0,0,1-.674-.667.671.671,0,0,1,.674-.667h5.4a.671.671,0,0,1,.674.667.671.671,0,0,1-.674.667Zm-9.442-4a.671.671,0,0,1-.675-.667.671.671,0,0,1,.675-.667h14.837a.671.671,0,0,1,.674.667.671.671,0,0,1-.674.667Z" transform="translate(2210 462)" fill="url(#linear-gradient)"/>
</svg>
