<svg xmlns="http://www.w3.org/2000/svg" xmlns:xlink="http://www.w3.org/1999/xlink" width="40.994" height="40.992" viewBox="0 0 40.994 40.992">
  <defs>
    <linearGradient id="linear-gradient" x1="0.5" x2="0.5" y2="1" gradientUnits="objectBoundingBox">
      <stop offset="0" stop-color="#b65eba"/>
      <stop offset="1" stop-color="#2e8de1"/>
    </linearGradient>
  </defs>
  <path id="Educational" d="M-2205.661,40c-1.087,0-1.246-.154-1.247-1.2,0-1.139,0-2.278,0-3.416,0-.806.226-1.031,1.049-1.032q15.839,0,31.677,0c.843,0,1.048.206,1.05,1.021,0,1.217.005,2.434,0,3.652,0,.766-.216.967-1.039.967q-7.935,0-15.869,0v0h-15.622Zm.311-1.469h30.676V35.853h-30.676Zm28.569-5.4c-.011-.485,0-.971,0-1.491h-26.449c0,.495.009.96,0,1.425-.013.559-.3.89-.76.893s-.741-.325-.749-.895c-.009-.628-.005-1.256,0-1.884.005-.818.2-1.008,1.064-1.009q6.012,0,12.024,0h15.123c1.113,0,1.26.138,1.26,1.181,0,.589.009,1.178,0,1.767a.773.773,0,0,1-.748.843h-.007A.764.764,0,0,1-2176.781,33.127Zm-2.08-4.171c-.021-.8-.006-1.608-.006-2.413V22.427h0c0-2.155-.005-4.311,0-6.466a.763.763,0,0,1,.774-.818.763.763,0,0,1,.729.857q.009,4,0,8c0,1.609,0,3.217,0,4.826a.8.8,0,0,1-.476.874.793.793,0,0,1-.294.058A.764.764,0,0,1-2178.862,28.956Zm-23.816-.363V22.415q0-3.058,0-6.116a2.779,2.779,0,0,1,.015-.528.708.708,0,0,1,.776-.619.69.69,0,0,1,.7.627,3.24,3.24,0,0,1,.016.47q0,6.176,0,12.351c0,.8-.212,1.129-.726,1.146h-.039C-2202.446,29.746-2202.677,29.387-2202.678,28.593Zm9.713.592A2.26,2.26,0,0,1-2193,28.6q0-3.09,0-6.179h0c0-2.157-.007-4.314.005-6.471a.763.763,0,0,1,.789-.806c.435.02.706.335.708.869.008,1.8.005,3.6.005,5.4q0,3.587,0,7.174a3.936,3.936,0,0,1-.013.529.672.672,0,0,1-.695.625h-.053A.693.693,0,0,1-2192.965,29.185Zm4.437-.055a2.815,2.815,0,0,1-.018-.528q-.017-4.735-.031-9.471c0-1.058.014-2.117.037-3.175a.758.758,0,0,1,.776-.812.747.747,0,0,1,.721.8c.009,2.175,0,4.35,0,6.525q0,3.029,0,6.058a4.318,4.318,0,0,1-.014.587.673.673,0,0,1-.7.623h-.05A.689.689,0,0,1-2188.528,29.129Zm5.227-.064a3.108,3.108,0,0,1-.011-.47q0-2.178,0-4.355V16.422c0-.157-.006-.315,0-.471a.773.773,0,0,1,.788-.807.749.749,0,0,1,.711.811c.011,1.567.006,3.133.006,4.7q0,3.939,0,7.877c0,.177.008.354-.009.529a.68.68,0,0,1-.707.679h-.042A.7.7,0,0,1-2183.3,29.066Zm-14.9.116a1.863,1.863,0,0,1-.025-.468q-.015-5.294-.027-10.589c0-.705.013-1.411.028-2.116a.78.78,0,0,1,.725-.864c.451-.02.773.322.775.869.007,2.155,0,4.31,0,6.466h0q0,3.088,0,6.175c0,.176.058.4-.035.517a1.5,1.5,0,0,1-.693.55.632.632,0,0,1-.149.018A.664.664,0,0,1-2198.2,29.181Zm19.3-14.437h-24.611c-1.065,0-1.227-.152-1.228-1.154,0-.569-.01-1.139.007-1.708a.716.716,0,0,1,.716-.8.737.737,0,0,1,.786.8c.021.447,0,.9,0,1.383h26.448c0-.459-.006-.886,0-1.313.011-.571.286-.876.767-.868.457.008.73.3.741.837.012.628.01,1.257,0,1.885-.009.687-.253.924-.967.93q-.578.005-1.155,0Zm7.842-4.071c-.067,0-.134-.009-.2-.009h-18.781v0h-18.781a1.583,1.583,0,0,1-.612-.03c-.22-.1-.5-.281-.55-.473a1.187,1.187,0,0,1,.2-.736c.062-.118.265-.175.411-.245q9.337-4.5,18.671-8.994a1.379,1.379,0,0,1,1.333-.024q9.355,4.526,18.725,9.024c.146.071.342.126.413.244.124.207.279.49.216.679a1.119,1.119,0,0,1-.577.528.646.646,0,0,1-.275.048C-2170.932,10.683-2171,10.678-2171.066,10.674Zm-19.456-8.963q-7.511,3.628-15.031,7.24c-.117.057-.229.125-.473.26h31.827l.032-.088c-.119-.066-.235-.138-.358-.2q-7.515-3.619-15.027-7.245a1.009,1.009,0,0,0-.447-.115A1.192,1.192,0,0,0-2190.521,1.711Zm-1.515,4.066a1.983,1.983,0,0,1,2.058-1.927A1.971,1.971,0,0,1-2188,5.786a1.959,1.959,0,0,1-1.992,1.919h-.019A1.971,1.971,0,0,1-2192.037,5.776Zm1.055.032a.954.954,0,0,0,.968.878.941.941,0,0,0,.959-.879.944.944,0,0,0-.96-.94A.961.961,0,0,0-2190.981,5.808Z" transform="translate(2210.498 0.492)" stroke="rgba(0,0,0,0)" stroke-miterlimit="10" stroke-width="1" fill="url(#linear-gradient)"/>
</svg>
