<svg xmlns="http://www.w3.org/2000/svg" xmlns:xlink="http://www.w3.org/1999/xlink" width="40" height="40" viewBox="0 0 40 40">
  <defs>
    <linearGradient id="linear-gradient" x1="0.5" x2="0.5" y2="1" gradientUnits="objectBoundingBox">
      <stop offset="0" stop-color="#b65eba"/>
      <stop offset="1" stop-color="#2e8de1"/>
    </linearGradient>
  </defs>
  <g id="Government_Entities" data-name="Government Entities" transform="translate(-106.749 -230.374)">
    <path id="Path_39" data-name="Path 39" d="M106.749,249.124c.06-.143.109-.292.182-.429a1.731,1.731,0,0,1,1.541-.967c.232-.01.464,0,.743,0,0-.228-.005-.42,0-.612A1.7,1.7,0,0,1,111,245.36c1.523-.008,3.047,0,4.57,0h.371a23.825,23.825,0,0,1,.974-2.218c.417-.744.953-1.423,1.438-2.128a.974.974,0,0,1,.129-.146.58.58,0,0,1,.886.749c-.06.085-.133.16-.2.239a9.943,9.943,0,0,0-2.33,5.4,3.992,3.992,0,0,0,0,.448h19.822a6.749,6.749,0,0,0-.253-1.805A9.967,9.967,0,0,0,128,238.439a9.868,9.868,0,0,0-6.506,1.418,2.459,2.459,0,0,1-.336.2.579.579,0,0,1-.718-.228.551.551,0,0,1,.118-.739,2.766,2.766,0,0,1,.386-.264,10.992,10.992,0,0,1,4.848-1.586c.1-.008.2-.03.367-.054,0-.157,0-.307,0-.457q0-2.676,0-5.351c0-.1,0-.208,0-.312.019-.481.22-.684.7-.685q2.441-.005,4.882,0c.625,0,1.25,0,1.875,0,.655.005.9.448.565,1.017-.31.527-.628,1.048-.96,1.6.282.47.569.946.855,1.423a2.814,2.814,0,0,1,.211.373.575.575,0,0,1-.5.819c-.1.01-.208,0-.312,0l-5.664,0h-.454v1.551c5.109.56,8.47,3.3,10.161,8.2h.421c1.471,0,2.944.036,4.413-.012a1.788,1.788,0,0,1,1.921,1.915c-.008.14,0,.282,0,.465.258,0,.476,0,.693,0a1.734,1.734,0,0,1,1.77,1.788c.007.755,0,1.51,0,2.265a1.672,1.672,0,0,1-.915,1.565.388.388,0,0,0-.226.4q.006,6.054,0,12.109a.42.42,0,0,0,.246.429,1.67,1.67,0,0,1,.9,1.537c0,.247,0,.495,0,.742a1.731,1.731,0,0,1-1.168,1.718,1.35,1.35,0,0,0-.16.091H108.077a2.249,2.249,0,0,1-.982-.7c-.129-.2-.232-.419-.346-.63V267.4a1.981,1.981,0,0,1,.868-1.1.448.448,0,0,0,.278-.488c-.009-1.458-.005-2.916,0-4.375a2.737,2.737,0,0,1,.016-.39.571.571,0,0,1,1.124-.046,2.223,2.223,0,0,1,.033.465q0,2.07,0,4.14c0,.139,0,.278,0,.438h1.459c.007-.146.019-.273.019-.4q0-2.578,0-5.156c0-.664-.022-1.33.024-1.991a3.011,3.011,0,0,1,6,.435q0,3.32,0,6.64v.472h2.605c0-.159,0-.3,0-.439,0-2.278-.012-4.557.006-6.835a3.012,3.012,0,1,1,6.022.081c.009,2.252,0,4.5,0,6.757v.429h2.628v-.491c0-2.291-.017-4.583.009-6.874a3.006,3.006,0,0,1,6.01.124c.008,2.278,0,4.557,0,6.835v.413h2.6c.008-.135.021-.249.021-.364,0-1.068,0-2.135,0-3.2,0-1.315-.04-2.632.029-3.944a3.008,3.008,0,0,1,6,.4q0,3.32,0,6.64v.459h1.9V253.6H109.066c0,.169,0,.31,0,.451q0,2.07,0,4.14a2.076,2.076,0,0,1-.031.427.547.547,0,0,1-.6.447.541.541,0,0,1-.525-.485,2.632,2.632,0,0,1-.016-.39c0-1.458,0-2.916-.007-4.375,0-.136-.047-.344-.139-.394a2.087,2.087,0,0,1-1-1.245Zm19.958,3.271h17.923c.117,0,.235.006.351,0a.557.557,0,0,0,.589-.592q.016-1.152,0-2.3a.557.557,0,0,0-.586-.594c-.091-.007-.182,0-.273,0H108.786a2.533,2.533,0,0,0-.351.009.539.539,0,0,0-.509.547q-.018,1.191,0,2.382a.534.534,0,0,0,.507.548,3.265,3.265,0,0,0,.429.01Zm.038,14.849v0H111.086c-.846,0-1.692,0-2.538,0a.556.556,0,0,0-.625.624c-.006.26-.011.521,0,.781a.54.54,0,0,0,.548.546c.233.015.468.006.7.006H142.1c.924,0,1.848.007,2.773-.006a.919.919,0,0,0,.505-.144,1.608,1.608,0,0,0,0-1.663,1.087,1.087,0,0,0-.584-.138Q135.766,267.24,126.745,267.245Zm-2.738-1.185c.01-.122.024-.211.024-.3q0-3.471,0-6.943a2.072,2.072,0,0,0-.064-.539,1.837,1.837,0,0,0-3.61.5c-.012,2.353,0,4.707,0,7.06a1.091,1.091,0,0,0,.045.218Zm8.658,0c.007-.124.017-.212.017-.3,0-2.314.006-4.629,0-6.943a1.837,1.837,0,1,0-3.672,0c-.006,2.3,0,4.6,0,6.9,0,.111.017.221.027.335Zm-17.283-.01c.008-.118.017-.2.017-.272q0-3.456,0-6.911a2.527,2.527,0,0,0-.055-.5,1.835,1.835,0,0,0-3.623.5c-.009,2.3,0,4.608,0,6.911a2.459,2.459,0,0,0,.033.278Zm25.934,0c.008-.126.019-.227.019-.328q0-3.412,0-6.825a2.681,2.681,0,0,0-.051-.5,1.838,1.838,0,0,0-3.632.508c-.006,2.262,0,4.524,0,6.786,0,.114.013.228.022.362Zm-8.6-34.472H127.36v2.838h5.354c-.216-.362-.4-.686-.6-1a.71.71,0,0,1,0-.837C132.317,232.262,132.5,231.935,132.714,231.577Zm-22.3,16.115h5.212l.12-1.16H115.3c-1.285,0-2.571.022-3.856-.007C110.45,246.5,110.321,246.705,110.413,247.692Zm27.343-1.138.114,1.15h5.207c.01-.1.023-.172.026-.247.031-.78-.106-.925-.872-.925q-2.03,0-4.061,0C138.044,246.536,137.917,246.547,137.757,246.554Z" transform="translate(0)" fill="url(#linear-gradient)"/>
  </g>
</svg>
