<svg xmlns="http://www.w3.org/2000/svg" width="23.318" height="19.491" viewBox="0 0 23.318 19.491">
  <g id="outline" transform="translate(-15.997 -56)">
    <path id="Path_28" data-name="Path 28" d="M94.175,58.244a.39.39,0,0,0-.141-.282,8.522,8.522,0,0,0-4.6-1.92c-.28-.028-.565-.042-.85-.042h-.012c-.285,0-.57.014-.85.042a8.538,8.538,0,0,0-6.311,3.823l0,0h0a8.578,8.578,0,0,0,.556,10.165.39.39,0,0,0,.282.141h.019a.39.39,0,0,0,.276-.114L94.062,58.538A.39.39,0,0,0,94.175,58.244Zm-6.864,5.942H84.918a11.47,11.47,0,0,1,.483-2.935,24.751,24.751,0,0,0,2.784.2v1.858Zm-6.521,0A7.751,7.751,0,0,1,81.9,60.539a24.62,24.62,0,0,0,2.717.6,12.252,12.252,0,0,0-.484,3.048Zm7.152-7.381c.081-.007.162-.012.243-.016v3.885a23.981,23.981,0,0,1-2.528-.176,11.363,11.363,0,0,1,2.284-3.693Zm-1.411,8.16-1.469,1.469a11.558,11.558,0,0,1-.144-1.469Zm2.434-3.512q.56-.009,1.122-.044l-1.122,1.122Zm1.972-.894c-.652.065-1.314.1-1.972.114V56.789c.081,0,.163.01.244.016a11.407,11.407,0,0,1,2.144,3.339Zm-4.18-3.567a12.1,12.1,0,0,0-1.891,3.395,23.875,23.875,0,0,1-2.5-.529A7.753,7.753,0,0,1,86.758,56.993ZM82.3,69.2a7.812,7.812,0,0,1-1.508-4.234h3.349a12.313,12.313,0,0,0,.256,2.137Zm9.648-9.648a12.149,12.149,0,0,0-1.553-2.559A7.738,7.738,0,0,1,93.2,58.3Z" transform="translate(-60.884)" fill="#2a8fff"/>
    <path id="Path_29" data-name="Path 29" d="M153.828,117.956a8.6,8.6,0,0,0-.556-.753.39.39,0,0,0-.576-.027L141.171,128.7a.39.39,0,0,0,.027.576,8.522,8.522,0,0,0,4.6,1.92,8.732,8.732,0,0,0,1.636.007v1.984a.39.39,0,0,0,.676.264l3.5-3.787a8.578,8.578,0,0,0,2.219-11.708Zm-2.7,11.094a.392.392,0,0,0-.063.055l-2.848,3.085v-1.425a.39.39,0,0,0-.445-.386c-.118.017-.228.03-.335.041a7.919,7.919,0,0,1-1.558,0,7.74,7.74,0,0,1-3.845-1.48l10.9-10.9q.126.171.241.346a7.8,7.8,0,0,1-2.049,10.665Z" transform="translate(-118.966 -58.085)" fill="#2a8fff"/>
    <circle id="Ellipse_3" data-name="Ellipse 3" cx="0.5" cy="0.5" r="0.5" transform="translate(27.997 68)" fill="#2a8fff"/>
    <circle id="Ellipse_4" data-name="Ellipse 4" cx="0.5" cy="0.5" r="0.5" transform="translate(29.997 68)" fill="#2a8fff"/>
    <circle id="Ellipse_5" data-name="Ellipse 5" cx="0.5" cy="0.5" r="0.5" transform="translate(31.997 68)" fill="#2a8fff"/>
    <path id="Path_30" data-name="Path 30" d="M19.115,83.667a.39.39,0,0,0-.435.338l-.033.263A10.136,10.136,0,0,1,19.779,71.2a.39.39,0,1,0-.549-.554,10.915,10.915,0,0,0-1.24,14.045l-.329-.049a.39.39,0,0,0-.114.771l1.316.195a.39.39,0,0,0,.444-.337l.146-1.169A.39.39,0,0,0,19.115,83.667Z" transform="translate(0 -13.825)" fill="#2a8fff"/>
    <path id="Path_31" data-name="Path 31" d="M417.877,80.78a.39.39,0,1,0,0-.78h-1.169a.39.39,0,0,0-.39.39v1.169a.39.39,0,1,0,.78,0v-.129a10.135,10.135,0,0,1-.985,13.108.39.39,0,1,0,.554.549,10.915,10.915,0,0,0,.918-14.308Z" transform="translate(-380.512 -22.831)" fill="#2a8fff"/>
  </g>
</svg>
