<svg xmlns="http://www.w3.org/2000/svg" width="14.49" height="17.557" viewBox="0 0 14.49 17.557">
  <g id="Group_7" data-name="Group 7" transform="translate(-734.733 -91.75)">
    <g id="Group_6" data-name="Group 6" transform="translate(735.234 92.25)">
      <path id="Path_2" data-name="Path 2" d="M748.5,104.009a6.757,6.757,0,0,0-1.563-2.869,4.449,4.449,0,0,0-.6-.573,6.676,6.676,0,0,0-2.415-1.316,3.772,3.772,0,1,0-3.9,0,6.73,6.73,0,0,0-2.389,1.3,3.83,3.83,0,0,0-.619.568,6.775,6.775,0,0,0-1.579,2.889,7.4,7.4,0,0,0-.2,1.7v.351a2.744,2.744,0,0,0,2.745,2.745h8a2.744,2.744,0,0,0,2.745-2.745v-.351a6.937,6.937,0,0,0-.057-.872Zm-9.483-7.987a2.946,2.946,0,1,1,3.116,2.941h-.341A2.95,2.95,0,0,1,739.018,96.022Zm8.869,10.041a1.922,1.922,0,0,1-1.919,1.919h-8a1.922,1.922,0,0,1-1.919-1.919v-.351a5.927,5.927,0,0,1,5.743-5.918c.057.005.119.005.175.005s.119,0,.175-.005a5.927,5.927,0,0,1,5.743,5.918Z" transform="translate(-735.234 -92.25)" fill="#2a8fff" stroke="rgba(0,0,0,0)" stroke-width="1"/>
    </g>
  </g>
</svg>
