<svg xmlns="http://www.w3.org/2000/svg" width="195.611" height="30.923" viewBox="0 0 195.611 30.923">
  <g id="Logo" transform="translate(-117.042 -408.514)">
    <g id="Group_6477" data-name="Group 6477">
      <path id="Path_32" data-name="Path 32" d="M117.042,438.945l18.7-27.073a9.236,9.236,0,0,1,2.4-2.4,6.895,6.895,0,0,1,7.138.07,10.276,10.276,0,0,1,2.372,2.327l19.2,27.073H155.886l-14.052-19.87L136.464,427q-.762,1.077-1.59,2.3c-.552.82-1.036,1.5-1.455,2.036.718-.058,1.561-.091,2.529-.091h10.316l5.594,7.7Z" fill="#dc033a"/>
      <path id="Path_33" data-name="Path 33" d="M216.134,420.954q5.506,0,8.368,2.036a7.054,7.054,0,0,1,2.865,6.155,11.228,11.228,0,0,1-.716,4.115,7.285,7.285,0,0,1-2.283,3.088,10.975,10.975,0,0,1-4,1.927,22.209,22.209,0,0,1-5.84.67H184.7l5.951-7.7h24.59a4.423,4.423,0,0,0,2.417-.513,1.882,1.882,0,0,0,.761-1.679,1.82,1.82,0,0,0-.761-1.654,4.589,4.589,0,0,0-2.417-.491H198.95a17.622,17.622,0,0,1-5.012-.63,9.987,9.987,0,0,1-3.49-1.745,6.852,6.852,0,0,1-2.06-2.706,8.958,8.958,0,0,1-.67-3.514,9.605,9.605,0,0,1,.738-3.824,7.326,7.326,0,0,1,2.283-2.932,11.266,11.266,0,0,1,3.982-1.879,22.2,22.2,0,0,1,5.84-.673h26l-5.953,7.786H199.845a5.011,5.011,0,0,0-2.394.448,1.7,1.7,0,0,0-.783,1.613,1.744,1.744,0,0,0,.783,1.632,4.773,4.773,0,0,0,2.394.469Z" fill="#45474d"/>
      <path id="Path_34" data-name="Path 34" d="M267.743,431.246l-5.95,7.7H246.756a21.579,21.579,0,0,1-7.2-1.162,17.763,17.763,0,0,1-5.707-3.2,14.783,14.783,0,0,1-3.758-4.833,13.621,13.621,0,0,1-1.366-6.063,13.078,13.078,0,0,1,1.366-5.976,14.174,14.174,0,0,1,3.758-4.655,17.225,17.225,0,0,1,5.707-3,23.749,23.749,0,0,1,7.2-1.052h20.987l-5.95,7.786H246.756a11.006,11.006,0,0,0-3.491.539,8.471,8.471,0,0,0-2.773,1.5,7.05,7.05,0,0,0-1.836,2.3,6.6,6.6,0,0,0,1.812,8.147,8.742,8.742,0,0,0,2.8,1.453,11.449,11.449,0,0,0,3.491.513Z" fill="#45474d"/>
      <path id="Path_35" data-name="Path 35" d="M290.769,408.514q10.918,0,16.4,3.715t5.483,11.726q0,8.052-5.461,11.767t-16.423,3.715q-11.01,0-16.446-3.715t-5.437-11.767q0-8.013,5.459-11.726T290.769,408.514Zm0,23.136a49.889,49.889,0,0,0,5.907-.291,10.448,10.448,0,0,0,3.915-1.14,5.021,5.021,0,0,0,2.171-2.349,11.749,11.749,0,0,0,0-7.833,4.906,4.906,0,0,0-2.171-2.327,10.87,10.87,0,0,0-3.915-1.118,59.889,59.889,0,0,0-11.814,0,10.881,10.881,0,0,0-3.916,1.118,4.906,4.906,0,0,0-2.171,2.327,11.782,11.782,0,0,0,0,7.833,5.021,5.021,0,0,0,2.171,2.349,10.459,10.459,0,0,0,3.916,1.14A49.913,49.913,0,0,0,290.769,431.65Z" fill="#45474d"/>
    </g>
    <g id="Group_6478" data-name="Group 6478">
      <path id="Path_36" data-name="Path 36" d="M154.514,416.792h26.664l6-7.786H149.163Z" fill="#0b9147"/>
      <path id="Path_37" data-name="Path 37" d="M150.426,431.246l5.459,7.7h25.425l5.953-7.7Z" fill="#45474d"/>
      <path id="Path_38" data-name="Path 38" d="M185.517,420.372H157.053l4.824,6.8h18.316Z" fill="#45474d"/>
    </g>
  </g>
</svg>
