<svg xmlns="http://www.w3.org/2000/svg" xmlns:xlink="http://www.w3.org/1999/xlink" width="40.996" height="41" viewBox="0 0 40.996 41">
  <defs>
    <linearGradient id="linear-gradient" x1="0.5" x2="0.5" y2="1" gradientUnits="objectBoundingBox">
      <stop offset="0" stop-color="#b65eba"/>
      <stop offset="1" stop-color="#2e8de1"/>
    </linearGradient>
  </defs>
  <path id="Private_sector_Entities" data-name="Private sector Entities" d="M-2170.849,40a1.045,1.045,0,0,1-.409-.867c-.053-.919-.148-1.835-.227-2.765H-2181.6c-.079.972-.167,1.915-.226,2.86a.908.908,0,0,1-.43.773h-.391a.757.757,0,0,1-.447-.789q.493-6.011.973-12.023c.039-.482.061-.966.094-1.507-.853.471-1.643.919-2.447,1.342a.58.58,0,0,0-.363.6c.013,3.84.005,7.68.015,11.521a.9.9,0,0,1-.4.859h-.391a.84.84,0,0,1-.466-.862q.012-7.434,0-14.87v-.737c-.2.1-.335.167-.469.24-1.969,1.086-3.934,2.178-5.908,3.253a.584.584,0,0,0-.354.6c.012,3.838,0,7.676.014,11.513a.911.911,0,0,1-.4.86h-.39a.829.829,0,0,1-.47-.858q.012-7.5,0-14.993v-.505c-.178.11-.3.18-.414.257-2,1.341-3.993,2.687-6,4.019a.625.625,0,0,0-.317.6c.01,3.527,0,7.054.013,10.581a.952.952,0,0,1-.4.9h-.469a1.03,1.03,0,0,1-.4-.945q.015-7.515.008-15.03v-.5c-.169.087-.284.142-.395.2-1.992,1.1-3.98,2.2-5.978,3.292a.581.581,0,0,0-.359.6c.014,3.825.005,7.651.017,11.477a.973.973,0,0,1-.4.9H-2210V26.64a3.9,3.9,0,0,1,.559-.459q3.735-2.076,7.479-4.133l.137-.075c.594-.317,1.044-.059,1.047.608,0,1.2,0,2.4,0,3.594v.444c.166-.1.285-.171.4-.248l6.32-4.244c.065-.043.132-.084.195-.13a.644.644,0,0,1,.73-.093.666.666,0,0,1,.334.656c-.008.924,0,1.849,0,2.773v.447c.163-.084.287-.144.407-.21l6.353-3.51c.091-.051.18-.106.274-.149a.614.614,0,0,1,.938.586c.009.95,0,1.9,0,2.851v.42c.1-.041.161-.058.215-.087.831-.458,1.667-.911,2.489-1.386a.567.567,0,0,0,.25-.38c.3-3.645.588-7.291.879-10.936.063-.791.11-1.585.214-2.371a1.6,1.6,0,0,1,1.721-1.517q2.519-.026,5.04,0a1.67,1.67,0,0,1,1.759,1.707c.27,3.36.529,6.721.8,10.081.138,1.712.3,3.421.438,5.133.145,1.816.268,3.634.41,5.45q.291,3.736.6,7.472A1.012,1.012,0,0,1-2170.38,40Zm-10.65-4.93h9.919c-.225-2.806-.446-5.575-.669-8.356h-8.586C-2181.058,29.509-2181.277,32.276-2181.5,35.07Zm.78-9.653h8.366c-.067-.827-.132-1.626-.2-2.441h-7.987C-2180.6,23.8-2180.658,24.6-2180.719,25.416Zm1.16-14.626c-.038.415-.079.829-.112,1.244q-.346,4.32-.688,8.64c-.026.33-.038.662-.057,1h7.741c0-.136.008-.25,0-.364q-.259-3.269-.522-6.538c-.1-1.3-.207-2.594-.318-3.891-.036-.42-.155-.541-.56-.543q-1.608-.007-3.216,0h-1.747A.455.455,0,0,0-2179.56,10.791Zm-11.4,26.633c-.03-.726-.029-1.454-.008-2.18a.566.566,0,0,1,.613-.576q1.052-.02,2.1,0a.59.59,0,0,1,.6.587.589.589,0,0,1-.6.634c-.466.023-.934.005-1.475.005,0,.508.011.96,0,1.41a.621.621,0,0,1-.53.666.746.746,0,0,1-.1.007A.575.575,0,0,1-2190.956,37.423Zm-8.1-.193q-.008-.9,0-1.794c0-.547.212-.766.746-.773.624-.009,1.249-.006,1.873,0,.438.005.711.24.723.6s-.275.627-.73.637c-.438.01-.877,0-1.357,0,0,.474,0,.9,0,1.326,0,.475-.221.74-.6.75h-.024C-2198.823,37.979-2199.052,37.71-2199.056,37.23Zm-7.348.749c-.389,0-.624-.268-.627-.73q-.007-.936,0-1.873c.005-.484.229-.705.725-.712q.937-.013,1.873,0c.458,0,.742.251.741.623s-.285.609-.75.618c-.428.008-.856,0-1.341,0,0,.488,0,.916,0,1.342-.006.469-.233.733-.621.733Zm15.709-5.539a.8.8,0,0,1-.266-.525c-.031-.674-.025-1.35-.007-2.025a.614.614,0,0,1,.672-.652q.994-.022,1.987,0a.62.62,0,0,1,.665.656.614.614,0,0,1-.687.585c-.439.009-.878,0-1.387,0,0,.525.022.992-.005,1.456a.641.641,0,0,1-.612.634A.569.569,0,0,1-2190.7,32.439Zm-8.361-.634c0-.612-.005-1.223,0-1.835a.648.648,0,0,1,.713-.736q.957-.016,1.913,0a.658.658,0,0,1,.716.619c.008.371-.278.619-.737.626-.428.006-.856,0-1.351,0,0,.477,0,.9,0,1.33,0,.465-.231.743-.608.754h-.021C-2198.808,32.567-2199.054,32.273-2199.057,31.806Zm-7.973.022c0-.625-.008-1.249,0-1.874a.639.639,0,0,1,.69-.72c.651-.014,1.3-.011,1.952,0a.651.651,0,0,1,.7.636c0,.359-.28.6-.715.608s-.881,0-1.375,0c0,.485,0,.913,0,1.341,0,.459-.246.743-.621.743S-2207.026,32.281-2207.029,31.828Zm1.324-10.026c-.157-.413-.306-.83-.423-1.255-.06-.22-.14-.317-.382-.34-.777-.071-1.553-.16-2.326-.27a1.166,1.166,0,0,1-1.1-1.238c-.011-.244-.042-.488-.063-.731V16.562a1.586,1.586,0,0,1,1.4-.947c.645-.078,1.282-.218,1.923-.324a.388.388,0,0,0,.374-.355,11.143,11.143,0,0,1,1.294-3.37.335.335,0,0,0-.039-.447c-.47-.574-.931-1.155-1.392-1.737a1.222,1.222,0,0,1,.082-1.838c.373-.4.744-.8,1.125-1.194a1.184,1.184,0,0,1,1.655-.17q.966.662,1.912,1.354a.332.332,0,0,0,.446.015,11.22,11.22,0,0,1,3.326-1.5.365.365,0,0,0,.312-.373c.072-.738.159-1.474.24-2.211a1.226,1.226,0,0,1,1.312-1.206c.56-.017,1.119-.046,1.679-.055a1.2,1.2,0,0,1,1.306,1.08c.137.755.268,1.511.386,2.269a.332.332,0,0,0,.307.327,11.266,11.266,0,0,1,3.447,1.313.31.31,0,0,0,.414-.037c.575-.469,1.157-.929,1.741-1.387a1.232,1.232,0,0,1,1.87.084c.4.374.8.743,1.194,1.124a1.15,1.15,0,0,1,.173,1.587c-.442.659-.9,1.308-1.366,1.95a.358.358,0,0,0-.01.482,10.754,10.754,0,0,1,1.483,3.291c.076.3.272.3.491.325.409.052.661.305.649.643a.637.637,0,0,1-.686.6,8.95,8.95,0,0,1-.931-.1.656.656,0,0,1-.577-.555,10.479,10.479,0,0,0-1.812-4.024.7.7,0,0,1,.033-.9c.559-.782,1.108-1.572,1.687-2.4l-1.3-1.232c-.6.478-1.19.947-1.779,1.412-1.008.8-.861.825-1.982.168a9.8,9.8,0,0,0-3.362-1.2c-.615-.1-.729-.216-.836-.839-.138-.807-.274-1.615-.414-2.422-.017-.1-.05-.2-.069-.273h-1.788c-.109.971-.218,1.9-.317,2.828-.057.531-.174.679-.684.8a10.8,10.8,0,0,0-3.819,1.714c-.46.328-.614.323-1.086-.008-.766-.537-1.531-1.075-2.323-1.632l-1.231,1.3c.577.727,1.142,1.439,1.709,2.15.439.551.447.648.083,1.242a10.488,10.488,0,0,0-1.419,3.772c-.093.553-.206.663-.77.764-.92.166-1.841.326-2.755.487,0,.559-.011,1.1.014,1.641,0,.07.194.173.308.187q1.316.17,2.636.306a.689.689,0,0,1,.654.561c.169.586.351,1.168.541,1.748.143.434.031.776-.322.91a.674.674,0,0,1-.24.047A.671.671,0,0,1-2205.706,21.8Zm21.409-.28a.577.577,0,0,1-.479-.587c.171-.757.3-1.448.49-2.12.142-.491,1.377-.717,1.741-.35a.606.606,0,0,1-.309,1.034c-.279.056-.345.192-.4.423a12.5,12.5,0,0,1-.347,1.236.577.577,0,0,1-.554.381A.624.624,0,0,1-2184.3,21.522Zm-3.4-.739a.565.565,0,0,1-.543-.524,1.239,1.239,0,0,1,.106-.524,7.018,7.018,0,0,0-4.639-9.065,7.02,7.02,0,0,0-9,7.251,13.581,13.581,0,0,0,.383,1.867.632.632,0,0,1-.419.832.629.629,0,0,1-.772-.483,7.817,7.817,0,0,1-.446-3.379,8.239,8.239,0,0,1,6.456-7.417c.593-.134,1.207-.172,1.812-.254a8.355,8.355,0,0,1,8.22,7.433,8.325,8.325,0,0,1-.483,3.8.614.614,0,0,1-.6.47C-2187.643,20.786-2187.67,20.785-2187.7,20.782Zm-6.117-.833a1.925,1.925,0,0,0-1.9-.012.628.628,0,0,1-.908-.222.617.617,0,0,1,.367-.887c.474-.194.976-.318,1.51-.487.512.172,1.024.309,1.5.517a.6.6,0,0,1,.3.878.58.58,0,0,1-.514.311A.772.772,0,0,1-2193.814,19.949Zm-4.2-2.428a.591.591,0,0,1,.3-.731,5.6,5.6,0,0,1,2.149-.775c.27-.039.543-.054.695-.069a5.75,5.75,0,0,1,2.979.81.633.633,0,0,1,.287.921c-.193.3-.506.334-.895.176a9.937,9.937,0,0,0-1.679-.583,3.937,3.937,0,0,0-2.744.5,1.249,1.249,0,0,1-.466.18l-.061,0A.567.567,0,0,1-2198.017,17.521Zm-1.44-2.017a.593.593,0,0,1,.18-.853,15.56,15.56,0,0,1,1.721-.9,7.385,7.385,0,0,1,2.755-.526,7.947,7.947,0,0,1,4.462,1.388.623.623,0,0,1,.322.692.542.542,0,0,1-.515.46,1.128,1.128,0,0,1-.574-.181,6.951,6.951,0,0,0-3.1-1.072,6.6,6.6,0,0,0-4.13,1c-.088.054-.171.119-.262.169a.755.755,0,0,1-.363.1A.585.585,0,0,1-2199.457,15.5Zm24.443-7.366a2.013,2.013,0,0,1-2.031-2.031,2.032,2.032,0,0,1,2.064-2.045,2.052,2.052,0,0,1,2.02,2.058,2.036,2.036,0,0,1-2.048,2.018Zm-.775-2.048a.76.76,0,0,0,.769.8.78.78,0,0,0,.808-.77.794.794,0,0,0-.778-.8h-.016A.772.772,0,0,0-2175.789,6.089Zm-8.063-2.947A3.126,3.126,0,0,1-2180.742,0a3.154,3.154,0,0,1,3.151,3.115,3.136,3.136,0,0,1-3.124,3.136h-.011A3.1,3.1,0,0,1-2183.853,3.143Zm3.1-1.894a1.867,1.867,0,0,0-1.852,1.872A1.865,1.865,0,0,0-2180.722,5a1.882,1.882,0,0,0,1.881-1.888,1.892,1.892,0,0,0-1.894-1.864Z" transform="translate(2210.5 0.5)" stroke="rgba(0,0,0,0)" stroke-miterlimit="10" stroke-width="1" fill="url(#linear-gradient)"/>
</svg>
